<svg viewBox="0 0 35 35" fill="none" xmlns="http://www.w3.org/2000/svg">
    <path
        d="M2.88235 18.3929C1.70588 18.3929 1.70588 16.6071 2.88235 16.6071C3.85697 16.6071 4.64706 15.8077 4.64706 14.8214V8.125C4.64706 6.39911 6.02971 5 7.73529 5H8.17647C8.66378 5 9.05882 5.39975 9.05882 5.89286C9.05882 6.38597 8.66378 6.78571 8.17647 6.78571H7.73529C7.00433 6.78571 6.41176 7.38533 6.41176 8.125V14.8214C6.41176 15.8881 5.94963 16.8456 5.21691 17.5C5.94963 18.1544 6.41176 19.1119 6.41176 20.1786V26.875C6.41176 27.6147 7.00433 28.2143 7.73529 28.2143H8.17647C8.66378 28.2143 9.05882 28.614 9.05882 29.1071C9.05882 29.6003 8.66378 30 8.17647 30H7.73529C6.02971 30 4.64706 28.6009 4.64706 26.875V20.1786C4.64706 19.1923 3.85697 18.3929 2.88235 18.3929ZM31.1176 18.3929C30.143 18.3929 29.3529 19.1923 29.3529 20.1786V26.875C29.3529 28.6009 27.9703 30 26.2647 30H25.8235C25.3362 30 24.9412 29.6003 24.9412 29.1071C24.9412 28.614 25.3362 28.2143 25.8235 28.2143H26.2647C26.9957 28.2143 27.5882 27.6147 27.5882 26.875V20.1786C27.5882 19.1119 28.0504 18.1544 28.7831 17.5C28.0504 16.8456 27.5882 15.8881 27.5882 14.8214V8.125C27.5882 7.38533 26.9957 6.78571 26.2647 6.78571H25.8235C25.3362 6.78571 24.9412 6.38597 24.9412 5.89286C24.9412 5.39975 25.3362 5 25.8235 5H26.2647C27.9703 5 29.3529 6.39911 29.3529 8.125V14.8214C29.3529 15.8077 30.143 16.6071 31.1176 16.6071C32.2941 16.6071 32.2941 18.3929 31.1176 18.3929ZM9.94118 11.25C9.45387 11.25 9.05882 10.8503 9.05882 10.3571C9.05882 9.86403 9.45387 9.46429 9.94118 9.46429H16.1176C16.605 9.46429 17 9.86403 17 10.3571C17 10.8503 16.605 11.25 16.1176 11.25H9.94118ZM9.94118 25.5357C9.45387 25.5357 9.05882 25.136 9.05882 24.6429C9.05882 24.1497 9.45387 23.75 9.94118 23.75H16.1176C16.605 23.75 17 24.1497 17 24.6429C17 25.136 16.605 25.5357 16.1176 25.5357H9.94118ZM16.1176 16.1607C15.6303 16.1607 15.2353 15.761 15.2353 15.2679C15.2353 14.7747 15.6303 14.375 16.1176 14.375H24.0588C24.5461 14.375 24.9412 14.7747 24.9412 15.2679C24.9412 15.761 24.5461 16.1607 24.0588 16.1607H16.1176ZM16.1176 20.625C15.6303 20.625 15.2353 20.2253 15.2353 19.7321C15.2353 19.239 15.6303 18.8393 16.1176 18.8393H24.0588C24.5461 18.8393 24.9412 19.239 24.9412 19.7321C24.9412 20.2253 24.5461 20.625 24.0588 20.625H16.1176Z" />
</svg>