<svg width="24" height="28" viewBox="0 0 24 28" fill="none" xmlns="http://www.w3.org/2000/svg">
<path d="M7.96579 26.62C8.07419 26.463 8.53745 26.223 8.53745 26.0439C8.53745 25.8591 8.53457 25.5388 8.53073 25.1117C8.52593 24.5784 8.51963 23.8788 8.51558 23.0689C3.64766 24.1248 2.621 20.721 2.621 20.721C1.82475 18.7012 0.674122 18.1616 0.674122 18.1616C-0.911086 17.0766 0.796622 17.0985 0.796622 17.0985C2.55391 17.221 3.47704 18.901 3.47704 18.901C5.03746 21.5771 7.5735 20.8041 8.57391 20.3564C8.73141 19.2248 9.18204 18.4533 9.68225 18.0158C5.79579 17.5783 1.711 16.0733 1.711 9.36788C1.711 7.45747 2.38912 5.89705 3.51204 4.67205C3.31516 4.23018 2.72454 2.45101 3.66516 0.040385C3.66516 0.040385 5.13079 -0.429199 8.47766 1.83414C9.87766 1.44476 11.3652 1.25226 12.8527 1.24351C14.3402 1.25226 15.8277 1.44476 17.2277 1.83414C20.5527 -0.429199 22.0183 0.040385 22.0183 0.040385C22.9589 2.45101 22.3683 4.23018 22.1933 4.67205C23.3089 5.89705 23.987 7.45747 23.987 9.36788C23.987 16.0908 19.8964 17.571 16.0027 18.0012C16.6152 18.5262 17.1839 19.5996 17.1839 21.2387C17.1839 22.8077 17.1741 24.1698 17.1676 25.0691C17.1644 25.5123 17.162 25.843 17.162 26.0308C17.162 26.3089 17.2743 26.6192 17.562 26.7818C16.205 27.1528 14.7729 27.3491 13.2927 27.3491C11.5525 27.3491 9.48851 27.1274 7.96579 26.62Z" fill="#4C566A"/>
</svg>
