<svg width="50" height="50" viewBox="0 0 50 50" fill="none" xmlns="http://www.w3.org/2000/svg"><circle class="fill--ui-2" cx="25" cy="25" r="25" fill="#7b88a1"></circle><circle class="fill--bg-0" cx="25" cy="25" r="24" fill="#f2f4f8"></circle><path class="fill--ui-1" d="M20.9658 37.6201C21.0742 37.4631 21.5375 37.2231 21.5375 37.0441 21.5375 36.8592 21.5346 36.5389 21.5308 36.1119 21.526 35.5786 21.5197 34.8789 21.5156 34.0691 16.6477 35.1249 15.621 31.7211 15.621 31.7211 14.8248 29.7013 13.6742 29.1618 13.6742 29.1618 12.089 28.0768 13.7967 28.0986 13.7967 28.0986 15.554 28.2211 16.4771 29.9011 16.4771 29.9011 18.0375 32.5772 20.5735 31.8043 21.574 31.3566 21.7315 30.2249 22.1821 29.4534 22.6823 29.0159 18.7958 28.5784 14.711 27.0734 14.711 20.368 14.711 18.4576 15.3892 16.8972 16.5121 15.6722 16.3152 15.2303 15.7246 13.4511 16.6652 11.0405 16.6652 11.0405 18.1308 10.5709 21.4777 12.8343 22.8777 12.4449 24.3652 12.2524 25.8527 12.2436 27.3402 12.2524 28.8277 12.4449 30.2277 12.8343 33.5527 10.5709 35.0183 11.0405 35.0183 11.0405 35.9589 13.4511 35.3683 15.2303 35.1933 15.6722 36.3089 16.8972 36.9871 18.4576 36.9871 20.368 36.9871 27.0909 32.8965 28.5711 29.0027 29.0013 29.6152 29.5263 30.1839 30.5997 30.1839 32.2388 30.1839 33.8078 30.1741 35.1699 30.1677 36.0692 30.1645 36.5124 30.1621 36.8432 30.1621 37.0309 30.1621 37.3091 30.2743 37.6193 30.562 37.7819 29.205 38.1529 27.7729 38.3493 26.2927 38.3493 24.5526 38.3493 22.4885 38.1276 20.9658 37.6201z" fill="#4c566a"></path></svg>