<svg viewBox="0 0 35 35" fill="none" xmlns="http://www.w3.org/2000/svg">
        <path
            d="M17.5 27.8748C17.2582 27.8748 17.0536 27.801 16.8862 27.6536L8.1808 20.2561C8.0878 20.1905 7.95991 20.084 7.79715 19.9366C7.63439 19.7891 7.3763 19.5208 7.02288 19.1317C6.66946 18.7425 6.35324 18.3432 6.07422 17.9336C5.7952 17.524 5.54641 17.0283 5.32785 16.4467C5.10928 15.865 5 15.2998 5 14.7509C5 12.9486 5.59059 11.5396 6.77176 10.5237C7.95294 9.50792 9.58519 9 11.6685 9C12.2452 9 12.8334 9.08807 13.4333 9.2642C14.0332 9.44033 14.5912 9.6779 15.1074 9.97692C15.6236 10.2759 16.0677 10.5565 16.4397 10.8187C16.8118 11.0808 17.1652 11.3593 17.5 11.6543C17.8348 11.3593 18.1882 11.0808 18.5603 10.8187C18.9323 10.5565 19.3764 10.2759 19.8926 9.97692C20.4088 9.6779 20.9668 9.44033 21.5667 9.2642C22.1666 9.08807 22.7548 9 23.3315 9C25.4148 9 27.0471 9.50792 28.2282 10.5237C29.4094 11.5396 30 12.9486 30 14.7509C30 16.5614 28.9351 18.4046 26.8052 20.2806L18.1138 27.6536C17.9464 27.801 17.7418 27.8748 17.5 27.8748Z" />
    </svg>