<svg width="50" height="50" viewBox="0 0 50 50" fill="none" xmlns="http://www.w3.org/2000/svg"><circle class="fill--ui-2" cx="25" cy="25" r="25" fill="#7b88a1"></circle><circle class="fill--bg-0" cx="25" cy="25" r="24" fill="#f2f4f8"></circle><path class="fill--ui-1" d="M14.3646 19.9942V36.0358h4.375V19.9942h-4.375z" fill="#4c566a"></path><path class="fill--ui-1" d="M14 15.5725C14 16.9929 15.1433 18.145 16.5521 18.145 17.9623 18.145 19.1042 16.9929 19.1042 15.5725S17.9608 13 16.5521 13C15.1433 13 14 14.1521 14 15.5725z" fill="#4c566a"></path><path class="fill--ui-1" d="M31.8646 36.0358H36.2396V26.179C36.2396 18.5183 28.0671 18.7969 26.0313 22.5681V19.9942h-4.375V36.0358h4.375V27.8633C26.0313 23.3235 31.8646 22.9517 31.8646 27.8633V36.0358z" fill="#4c566a"></path></svg>