<svg width="18" height="16" viewBox="0 0 18 16" fill="none" xmlns="http://www.w3.org/2000/svg">
<path d="M17.05 7H0.95C0.42533 7 0 7.42533 0 7.95V8.05C0 8.57467 0.42533 9 0.95 9H17.05C17.5747 9 18 8.57467 18 8.05V7.95C18 7.42533 17.5747 7 17.05 7Z" fill="#C4C4C4"/>
<path d="M17.05 12H0.95C0.42533 12 0 12.4253 0 12.95V13.05C0 13.5747 0.42533 14 0.95 14H17.05C17.5747 14 18 13.5747 18 13.05V12.95C18 12.4253 17.5747 12 17.05 12Z" fill="#C4C4C4"/>
<path d="M17.05 2H0.95C0.42533 2 0 2.42533 0 2.95V3.05C0 3.57467 0.42533 4 0.95 4H17.05C17.5747 4 18 3.57467 18 3.05V2.95C18 2.42533 17.5747 2 17.05 2Z" fill="#C4C4C4"/>
</svg>
