<svg viewBox="0 0 35 35" fill="none" xmlns="http://www.w3.org/2000/svg">
<path
    d="M17.5 17.5728C21.4453 17.5728 24.6429 14.7587 24.6429 11.2864C24.6429 7.81415 21.4453 5 17.5 5C13.5547 5 10.3571 7.81415 10.3571 11.2864C10.3571 14.7587 13.5547 17.5728 17.5 17.5728ZM22.5 19.1444H21.5681C20.3292 19.6454 18.9509 19.9302 17.5 19.9302C16.0491 19.9302 14.6763 19.6454 13.4319 19.1444H12.5C8.35937 19.1444 5 22.101 5 25.7452V27.7882C5 29.0897 6.19978 30.1456 7.67857 30.1456H27.3214C28.8002 30.1456 30 29.0897 30 27.7882V25.7452C30 22.101 26.6406 19.1444 22.5 19.1444Z" />
</svg>