<svg viewBox="0 0 35 35" fill="none" xmlns="http://www.w3.org/2000/svg">
<path
    d="M24.7891 16.6016L25 21.3333C25.0312 22.0221 24.7109 22.661 24.0391 23.25C23.3672 23.839 22.4492 24.3057 21.2852 24.6501C20.1211 24.9945 18.8594 25.1667 17.5 25.1667C16.1406 25.1667 14.8789 24.9945 13.7148 24.6501C12.5508 24.3057 11.6328 23.839 10.9609 23.25C10.2891 22.661 9.96875 22.0221 10 21.3333L10.2109 16.6016L16.9375 19.3119C17.1094 19.3817 17.2969 19.4167 17.5 19.4167C17.7031 19.4167 17.8906 19.3817 18.0625 19.3119L24.7891 16.6016ZM31 11.75C31 11.9796 30.9141 12.1343 30.7422 12.2142L17.6172 17.485C17.5859 17.495 17.5469 17.5 17.5 17.5C17.4531 17.5 17.4141 17.495 17.3828 17.485L9.74219 14.4004C9.40625 14.7398 9.12891 15.2963 8.91016 16.07C8.69141 16.8436 8.55859 17.7346 8.51172 18.7428C9.00391 19.1022 9.25 19.6463 9.25 20.375C9.25 21.0638 9.02344 21.5979 8.57031 21.9772L9.25 28.4609C9.26562 28.6007 9.23438 28.7255 9.15625 28.8353C9.08594 28.9451 8.99219 29 8.875 29H6.625C6.50781 29 6.41406 28.9451 6.34375 28.8353C6.26562 28.7255 6.23438 28.6007 6.25 28.4609L6.92969 21.9772C6.47656 21.5979 6.25 21.0638 6.25 20.375C6.25 19.6463 6.50391 19.0922 7.01172 18.7129C7.09766 16.6465 7.48047 14.9993 8.16016 13.7715L4.25781 12.2142C4.08594 12.1343 4 11.9796 4 11.75C4 11.5204 4.08594 11.3657 4.25781 11.2858L17.3828 6.01497C17.4141 6.00499 17.4531 6 17.5 6C17.5469 6 17.5859 6.00499 17.6172 6.01497L30.7422 11.2858C30.9141 11.3657 31 11.5204 31 11.75Z" />
</svg>