<svg width="28" height="23" viewBox="0 0 28 23" fill="none" xmlns="http://www.w3.org/2000/svg">
<path d="M27.8613 2.70189C26.832 3.15434 25.7328 3.46257 24.5755 3.60331C25.7549 2.89264 26.6622 1.77256 27.0914 0.436132C25.9852 1.08166 24.7593 1.55156 23.4543 1.81327C22.4121 0.697834 20.9268 -3.8119e-05 19.2775 -3.8119e-05C16.1173 -3.8119e-05 13.555 2.56232 13.555 5.71902C13.555 6.17264 13.6073 6.60881 13.7027 7.02637C8.94553 6.80189 4.72921 4.51752 1.90749 1.06422C1.41083 1.90399 1.13285 2.87985 1.13285 3.94294C1.13285 5.93188 2.14476 7.68005 3.67775 8.70708C2.73912 8.67684 1.85631 8.41863 1.08632 7.9906V8.06155C1.08632 10.8356 3.05548 13.149 5.67599 13.6759C5.19563 13.805 4.68851 13.8748 4.16859 13.8748C3.80337 13.8748 3.45327 13.8399 3.10317 13.7748C3.8371 16.0464 5.947 17.7027 8.45818 17.7492C6.50414 19.2833 4.02785 20.1975 1.36082 20.1975C0.907202 20.1975 0.454748 20.1708 -3.19171e-05 20.1196C2.54604 21.741 5.54572 22.6889 8.78967 22.6889C19.3206 22.6889 25.0722 13.9702 25.0722 6.42155C25.0722 6.17846 25.0722 5.93304 25.0547 5.68878C26.1725 4.88739 27.1484 3.87432 27.916 2.72515L27.8613 2.70189Z" fill="#4C566A"/>
</svg>
