<svg width="50" height="50" viewBox="0 0 50 50" fill="none" xmlns="http://www.w3.org/2000/svg"><circle class="fill--ui-2" cx="25" cy="25" r="25" fill="#7b88a1"></circle><circle class="fill--bg-0" cx="25" cy="25" r="24" fill="#f2f4f8"></circle><path class="fill--ui-1" d="M38.8613 16.7019C37.832 17.1543 36.7328 17.4626 35.5755 17.6033 36.7549 16.8926 37.6622 15.7726 38.0914 14.4361 36.9852 15.0817 35.7593 15.5516 34.4543 15.8133 33.4121 14.6978 31.9268 14 30.2775 14 27.1173 14 24.555 16.5623 24.555 19.719 24.555 20.1726 24.6073 20.6088 24.7027 21.0264 19.9455 20.8019 15.7292 18.5175 12.9075 15.0642 12.4108 15.904 12.1328 16.8798 12.1328 17.9429 12.1328 19.9319 13.1448 21.68 14.6778 22.7071 13.7391 22.6768 12.8563 22.4186 12.0863 21.9906V22.0615C12.0863 24.8356 14.0555 27.149 16.676 27.6759 16.1956 27.805 15.6885 27.8748 15.1686 27.8748 14.8034 27.8748 14.4533 27.8399 14.1032 27.7748 14.8371 30.0464 16.947 31.7027 19.4582 31.7492 17.5041 33.2833 15.0279 34.1975 12.3608 34.1975 11.9072 34.1975 11.4547 34.1708 11 34.1196 13.546 35.741 16.5457 36.6889 19.7897 36.6889 30.3206 36.6889 36.0722 27.9702 36.0722 20.4215 36.0722 20.1785 36.0722 19.933 36.0547 19.6888 37.1725 18.8874 38.1484 17.8743 38.916 16.7252L38.8613 16.7019z" fill="#4c566a"></path></svg>