<svg id="whoami2__image" viewBox="0 0 274 241" fill="none"
                    xmlns="http://www.w3.org/2000/svg">
                    <path class="fill--ui-2"
                        d="M82.2288 212.603C82.2288 212.603 83.7658 206.151 94.5254 208.301C105.285 210.452 106.822 212.603 106.822 212.603H82.2288Z"
                        fill="#ABB9CF" />
                    <path class="fill--ui-2"
                        d="M29.1995 204.154C29.1995 204.154 30.7365 197.702 41.4961 199.852C52.2557 202.003 53.7928 204.154 53.7928 204.154H29.1995Z"
                        fill="#ABB9CF" />
                    <path class="fill--ui-2"
                        d="M119.119 212.603C119.119 212.603 110.511 207.38 106.822 212.603H119.119Z"
                        fill="#ABB9CF" />
                    <path class="fill--ui-2"
                        d="M79.0009 197.855C79.0009 197.855 70.3932 192.632 66.7042 197.855H79.0009Z"
                        fill="#ABB9CF" />
                    <path
                        d="M30.7135 193.056C33.2762 197.806 38.715 199.845 38.715 199.845C38.715 199.845 39.999 194.183 37.4364 189.433C34.8737 184.684 29.4348 182.645 29.4348 182.645C29.4348 182.645 28.1508 188.307 30.7135 193.056Z"
                        fill="#ABB9CF" />
                    <path class="fill--blue-2"
                        d="M32.475 191.494C37.1017 194.276 38.8835 199.801 38.8835 199.801C38.8835 199.801 33.1641 200.817 28.5374 198.035C23.9108 195.253 22.1289 189.727 22.1289 189.727C22.1289 189.727 27.8483 188.712 32.475 191.494Z"
                        fill="#81A1C1" />
                    <path class="fill--ui-2"
                        d="M261.914 212.603C254.438 211.433 247.25 210.438 240.351 209.618L243.007 204.307C242.085 204 238.089 207.073 238.089 207.073L241.47 191.711C236.859 192.325 234.707 207.994 234.707 207.994L229.481 202.771L232.054 208.685C210.94 206.467 192.721 205.775 177.406 205.934L179.68 201.389C178.757 201.081 174.761 204.154 174.761 204.154L178.143 188.792C173.531 189.406 171.379 205.075 171.379 205.075L166.153 199.852L168.878 206.116C158.387 206.42 147.919 207.263 137.515 208.64C139.784 201.575 147.708 194.783 147.708 194.783C141.615 196.678 138.445 199.764 136.805 202.625C136.473 188.11 138.707 173.65 143.405 159.911C143.405 159.911 131.108 187.563 132.952 205.997L133.186 209.272C122.489 210.94 117.12 212.603 117.12 212.603H261.914Z"
                        fill="#ABB9CF" />
                    <path class="fill--ui-2"
                        d="M181.678 226.582C181.678 226.582 238.243 218.287 273.288 226.582Z" fill="#ABB9CF" />
                    <path class="fill--ui-2" d="M98.3682 237.95C98.3682 237.95 154.933 229.655 189.978 237.95Z"
                        fill="#ABB9CF" />
                    <path class="fill--ui-2" d="M203.197 241C203.197 241 236.699 232.508 257.456 241Z"
                        fill="#ABB9CF" />
                    <path class="fill--bg-special"
                        d="M100.913 116.742C100.913 154.72 78.3232 167.98 50.4567 167.98C22.5902 167.98 0 154.72 0 116.742C0 78.7642 50.4567 30.4504 50.4567 30.4504C50.4567 30.4504 100.913 78.7642 100.913 116.742Z"
                        fill="#292E39" />
                    <path class="fill--ui-1" opacity="0.2"
                        d="M48.6189 162.171L49.1353 130.387L70.6412 91.0656L49.2165 125.401L49.4486 111.11L64.2707 82.6607L49.5101 107.327L49.9282 81.6238L65.7994 58.9751L49.9936 77.5821L50.2546 30.4504L48.6143 92.8439L48.7489 90.2701L32.6123 65.5844L48.4904 95.2111L46.9868 123.918L46.9419 123.156L28.3392 97.1778L46.8857 125.847L46.6975 129.438L46.664 129.492L46.6794 129.786L42.8647 202.617H47.9613L48.5728 164.999L67.0737 136.399L48.6189 162.171Z"
                        fill="#D8DEE9" />
                    <path class="fill--bg-special"
                        d="M267.344 105.42C267.344 151.817 239.746 168.017 205.702 168.017C171.658 168.017 144.06 151.817 144.06 105.42C144.06 59.0237 205.702 0 205.702 0C205.702 0 267.344 59.0237 267.344 105.42Z"
                        fill="#292E39" />
                    <path class="fill--ui-1" opacity="0.2"
                        d="M203.456 160.92L204.088 122.09L230.361 74.0519L204.187 115.999L204.471 98.5391L222.578 63.7843L204.546 93.9189L205.056 62.5172L224.446 34.8479L205.136 57.5793L205.455 0L203.451 76.2247L203.616 73.0801L183.902 42.9225L203.3 79.1164L201.462 114.186L201.408 113.256L178.681 81.5193L201.339 116.544L201.109 120.93L201.068 120.996L201.087 121.356L196.427 210.332H202.653L203.4 164.374L226.002 129.435L203.456 160.92Z"
                        fill="#D8DEE9" />
                    <path class="fill--ui-1" opacity="0.1"
                        d="M169.233 240.261C179.844 240.261 188.446 238.816 188.446 237.035C188.446 235.253 179.844 233.809 169.233 233.809C158.621 233.809 150.019 235.253 150.019 237.035C150.019 238.816 158.621 240.261 169.233 240.261Z"
                        fill="#D8DEE9" />
                    <path class="fill--ui-2" d="M170.923 174.512H167.542V197.862H170.923V174.512Z"
                        fill="#ABB9CF" />
                    <path class="fill--ui-2" d="M208.736 174.512H205.354V197.862H208.736V174.512Z"
                        fill="#ABB9CF" />
                    <path class="fill--bg-special" d="M246.548 170.825H129.73V176.048H246.548V170.825Z"
                        fill="#292E39" />
                    <path class="fill--bg-special" d="M246.548 187.723H129.73V192.946H246.548V187.723Z"
                        fill="#292E39" />
                    <path class="fill--bg-special" d="M246.548 177.891H129.73V180.964H246.548V177.891Z"
                        fill="#292E39" />
                    <path class="fill--bg-special" d="M246.548 182.807H129.73V185.879H246.548V182.807Z"
                        fill="#292E39" />
                    <path class="fill--ui-1" d="M133.111 169.903H129.422V198.169H133.111V169.903Z"
                        fill="#D8DEE9" />
                    <path class="fill--ui-1" d="M246.548 169.596H242.859V197.862H246.548V169.596Z"
                        fill="#D8DEE9" />
                    <path class="fill--ui-1" d="M122.967 205.543H119.278V234.73H122.967V205.543Z"
                        fill="#D8DEE9" />
                    <path class="fill--ui-1" d="M134.956 204.314H131.267V219.983H134.956V204.314Z"
                        fill="#D8DEE9" />
                    <path class="fill--ui-1" d="M245.933 204.314H242.244V219.983H245.933V204.314Z"
                        fill="#D8DEE9" />
                    <path class="fill--ui-1" d="M256.078 205.543H252.389V234.73H256.078V205.543Z"
                        fill="#D8DEE9" />
                    <path class="fill--ui-1" d="M256.078 205.543H119.278V209.23H256.078V205.543Z"
                        fill="#D8DEE9" />
                    <path class="fill--bg-special"
                        d="M129.141 196.94L119.278 205.543H256.078L246.643 196.94H129.141Z" fill="#292E39" />
                    <path class="fill--blue-2"
                        d="M157.806 162.391C158.413 161.955 159.083 161.617 159.793 161.387C164.293 159.7 169.008 158.666 173.797 158.316C177.961 158.018 182.474 158.372 185.727 161.008C186.233 161.382 186.647 161.868 186.937 162.428C187.346 163.318 187.222 164.351 187.09 165.323C187.06 165.699 186.966 166.068 186.811 166.412C186.373 167.252 185.296 167.546 184.36 167.445C183.424 167.345 182.546 166.946 181.622 166.761C181.051 166.66 180.473 166.601 179.894 166.583L174.104 166.268C170.503 166.071 166.856 165.878 163.324 166.61C162.237 166.807 161.186 167.172 160.21 167.691C159.403 168.147 158.86 168.802 158.111 167.959C156.796 166.479 156.069 163.758 157.806 162.391Z"
                        fill="#81A1C1" />
                    <path class="fill--bg-special"
                        d="M166.715 165.131C166.715 165.131 174.607 161.717 177.601 165.656C180.594 169.596 175.968 168.02 175.968 168.02L170.797 169.596L165.083 168.545L166.715 165.131Z"
                        fill="#292E39" />
                    <path
                        d="M167.235 162.468C167.235 162.468 168.298 167.527 167.5 168.858C166.703 170.19 172.02 172.054 172.02 172.054L177.072 169.923C177.072 169.923 175.743 161.669 177.072 160.071L167.235 162.468Z"
                        fill="#EAC5C8" />
                    <path class="fill--ui-1" opacity="0.1"
                        d="M167.235 162.468C167.235 162.468 168.298 167.527 167.5 168.858C166.703 170.19 172.02 172.054 172.02 172.054L177.072 169.923C177.072 169.923 175.743 161.669 177.072 160.071L167.235 162.468Z"
                        fill="#D8DEE9" />
                    <path
                        d="M162.14 223.607C162.916 225.081 163.418 226.678 163.932 228.261C163.939 228.313 163.958 228.364 163.987 228.409C164.015 228.454 164.053 228.493 164.098 228.522C164.143 228.552 164.194 228.572 164.247 228.581C164.3 228.589 164.354 228.587 164.406 228.574L169.229 228.568C169.824 228.568 170.622 228.378 170.616 227.788C170.612 227.374 170.184 227.115 169.866 226.846C168.983 226.1 168.754 224.869 168.388 223.777C167.677 221.674 166.308 219.851 164.479 218.573C164.232 218.381 163.947 218.242 163.643 218.164C163.337 218.12 163.026 218.136 162.727 218.213C161.88 218.382 158.719 218.961 159.316 220.182C159.573 220.707 160.526 221.254 160.926 221.745C161.391 222.325 161.798 222.948 162.14 223.607Z"
                        fill="#EAC5C8" />
                    <path
                        d="M178.668 218.121C178.502 218.478 178.318 218.826 178.116 219.162C177.437 220.313 176.635 221.386 176.002 222.565C175.607 223.3 175.275 224.095 175.232 224.933C175.188 225.771 175.475 226.663 176.127 227.171C176.808 227.701 177.741 227.726 178.587 227.602C179.433 227.479 180.275 227.23 181.127 227.295C180.84 225.625 182.211 224.156 182.554 222.497C182.65 222.031 182.665 221.548 182.794 221.091C182.933 220.672 183.111 220.269 183.325 219.885C184.008 218.52 184.49 217.058 184.757 215.547C184.789 215.364 180.588 215.334 180.194 215.421C178.964 215.695 179.144 217.074 178.668 218.121Z"
                        fill="#EAC5C8" />
                    <path
                        d="M145.921 192.322C144.703 194.225 144.983 196.748 145.839 198.839C146.695 200.93 148.057 202.778 148.989 204.837C149.583 206.149 150 207.54 150.669 208.816C151.498 210.395 152.707 211.788 153.263 213.482C153.618 214.563 154.517 215.314 155.092 216.296C155.439 216.821 156.035 217.382 156.475 217.832C157.712 219.247 160.454 220.905 160.625 222.902C162.931 221.673 162.931 221.673 162.931 221.673C162.931 221.673 165.179 220.026 166.812 220.256C165.901 218.847 164.981 217.421 164.438 215.834C163.913 214.3 163.758 212.667 163.405 211.085C162.679 207.839 161.13 204.846 159.596 201.894L167.48 201.27C168.767 201.141 170.061 201.093 171.354 201.127C173.389 201.222 175.383 201.72 177.407 201.951C179.431 202.181 181.572 202.12 183.376 201.175C179.927 206.116 178.342 212.118 178.455 218.14C179.226 217.543 179.909 217.028 180.863 216.822C181.816 216.615 182.803 216.624 183.752 216.848C184.701 217.071 183.989 218.195 183.989 218.447C187.524 214.914 190.867 210.29 193.316 205.674C193.819 204.725 194.436 203.841 194.98 202.914C196.054 201.08 196.834 199.092 197.608 197.114C198.293 195.365 198.983 193.419 198.326 191.66C198.054 190.992 197.656 190.383 197.156 189.863C195.743 188.308 193.777 187.158 191.675 187.11C188.448 187.037 185.782 189.425 182.952 190.973C179.617 192.797 175.728 193.522 171.935 193.254C168.047 192.979 164.334 191.708 160.629 190.589C158.776 190.003 156.892 189.518 154.987 189.136C153.398 188.839 151.885 189.168 150.319 189.574C148.615 190.015 146.902 190.789 145.921 192.322Z"
                        fill="#4C566A" />
                    <path
                        d="M178 156.5C177.999 158.754 177.313 160.915 176.095 162.508C174.876 164.102 173.223 164.998 171.5 165C171.112 165.001 170.726 164.955 170.345 164.864C169.128 164.577 168 163.842 167.091 162.745C166.183 161.649 165.533 160.237 165.216 158.674C164.9 157.111 164.931 155.463 165.306 153.923C165.681 152.382 166.384 151.014 167.332 149.977C168.281 148.941 169.436 148.279 170.662 148.071C171.888 147.863 173.133 148.115 174.253 148.8C175.373 149.485 176.32 150.573 176.984 151.937C177.648 153.301 178 154.884 178 156.5Z"
                        fill="#EAC5C8" />
                    <path
                        d="M166.737 165.12C166.737 165.12 168.213 165.786 168.75 166.318C169.287 166.85 170.897 169.777 173.582 167.915C176.266 166.052 176.535 164.987 177.34 164.987C178.146 164.987 179.219 166.584 179.219 166.584L186.602 188.538C184.612 190.765 182.306 192.692 179.756 194.26C175.461 196.921 170.361 198.252 167.945 197.187C165.529 196.123 160.965 195.324 160.16 193.195C159.354 191.067 158.012 184.68 158.012 184.68L161.77 168.447L166.737 165.12Z"
                        fill="#4C566A" />
                    <path class="fill--blue-2"
                        d="M165.859 187.381C166.445 186.115 166.53 184.683 166.579 183.29C166.658 181.91 166.622 180.526 166.47 179.152C166.232 177.355 165.647 175.623 165.278 173.848C164.954 172.292 164.796 170.705 164.808 169.115C164.813 168.39 164.866 167.626 165.261 167.018C165.537 166.593 165.968 166.264 166.14 165.789C166.478 164.855 165.643 163.878 164.729 163.494C163.641 163.037 162.397 163.068 161.253 163.354C160.108 163.641 159.04 164.169 157.983 164.693C157.219 165.071 156.439 165.461 155.847 166.075C155.013 166.938 154.646 168.14 154.351 169.303C154.114 170.233 153.903 171.204 154.083 172.148C154.376 173.68 155.624 174.832 156.29 176.243C157.063 177.881 157.011 179.789 156.703 181.575C156.396 183.36 155.85 185.105 155.682 186.908C155.514 188.712 155.772 190.65 156.901 192.066C157.361 192.643 158.61 194.01 159.452 193.856C160.114 193.734 161.074 192.276 161.607 191.814C163.147 190.479 164.975 189.292 165.859 187.381Z"
                        fill="#81A1C1" />
                    <path class="fill--blue-2"
                        d="M179.866 164.105C179.89 165.603 179.231 167.027 178.456 168.309C177.68 169.59 176.77 170.802 176.199 172.186C175.489 173.92 175.344 175.833 175.784 177.654C175.948 178.274 176.146 178.885 176.376 179.484L177.845 183.52C178.043 184.155 178.329 184.758 178.697 185.312C179.029 185.736 179.419 186.112 179.854 186.428C180.97 187.33 182.254 188.001 183.632 188.402C185.014 188.768 186.526 188.745 187.832 188.162C187.974 182.689 188.851 177.261 190.441 172.024C190.735 171.057 191.056 170.039 190.829 169.054C190.575 167.951 189.691 167.123 188.85 166.367C186.279 164.054 183.452 161.624 180.01 161.312C178.018 161.132 179.849 163.022 179.866 164.105Z"
                        fill="#81A1C1" />
                    <path
                        d="M162.238 195.403C162.442 195.8 162.568 196.232 162.769 196.63C163.066 197.164 163.432 197.655 163.859 198.092C165.646 200.068 167.83 202.036 170.495 202.155C170.76 202.18 171.027 202.146 171.277 202.057C171.743 201.864 172.019 201.366 172.109 200.87C172.298 199.838 171.842 198.808 171.384 197.864C170.393 195.816 169.278 193.717 167.422 192.396C165.592 191.094 163.141 190.778 161.007 191.434C160.04 191.731 158.437 192.249 159.717 193.129C160.688 193.796 161.675 194.304 162.238 195.403Z"
                        fill="#EAC5C8" />
                    <path
                        d="M173.721 169.007C173.388 168.275 173.041 167.523 172.443 166.979C171.879 166.509 171.21 166.176 170.492 166.006C169.56 165.744 168.597 165.608 167.628 165.602C166.475 165.595 165.138 165.899 164.649 166.927C164.26 167.743 164.561 168.709 164.953 169.523C165.12 169.945 165.399 170.316 165.76 170.597C166.257 170.927 166.9 170.917 167.49 171.028C168.414 171.201 169.241 171.689 170.046 172.168L172.066 173.369L175.535 175.433C175.443 175.379 175.476 173.037 175.369 172.654C175.026 171.418 174.253 170.177 173.721 169.007Z"
                        fill="#EAC5C8" />
                    <path class="fill--ui-1"
                        d="M163.764 227.717C162.965 228.81 163.125 230.372 162.417 231.527C161.803 232.528 160.647 233.053 159.879 233.94C159.634 234.234 159.416 234.55 159.226 234.884C158.514 236.084 157.936 237.622 158.637 238.829C159.201 239.799 160.387 240.179 161.474 240.437C162.849 240.764 164.277 241.026 165.668 240.776C167.058 240.526 168.417 239.669 168.913 238.339C169.01 238.004 169.126 237.675 169.26 237.354C170.013 235.861 172.377 235.844 173.149 234.361C173.688 233.322 173.192 232.067 172.696 231.007L171.181 227.769C170.679 226.694 168.641 227.312 167.578 227.055C166.193 226.719 164.761 226.349 163.764 227.717Z"
                        fill="#D8DEE9" />
                    <path class="fill--ui-1"
                        d="M175.544 224.853C174.896 225.308 174.477 226.023 174.162 226.751C173.406 228.499 173.146 230.416 172.894 232.304C172.793 233.061 172.692 233.835 172.85 234.582C173.176 236.124 174.571 237.26 176.072 237.732C177.573 238.203 179.183 238.131 180.755 238.053C181.259 238.029 181.784 237.998 182.227 237.754C183.016 237.318 183.325 236.292 183.189 235.398C183.054 234.505 182.567 233.71 182.09 232.943C181.613 232.176 181.126 231.381 180.989 230.488C180.76 228.986 181.408 226.78 180.487 225.42C179.563 224.058 176.776 223.988 175.544 224.853Z"
                        fill="#D8DEE9" />
                    <path class="fill--blue-2"
                        d="M153.898 172.364C153.128 173.498 152.241 174.588 151.819 175.89C151.57 176.656 151.493 177.465 151.313 178.249C150.714 180.862 148.982 183.183 148.808 185.858C148.747 186.452 148.835 187.052 149.063 187.605C149.559 188.684 150.748 189.252 151.882 189.61C153.016 189.968 154.233 190.225 155.138 190.995C155.594 191.432 156.007 191.91 156.372 192.424C157.849 194.258 159.835 195.615 162.081 196.325C161.904 195.104 161.821 193.632 162.798 192.877C163.327 192.469 164.034 192.396 164.701 192.338L166.466 191.717C164.366 189.683 163.435 188.232 160.947 186.696C160.076 186.159 159.129 185.593 158.731 184.651C158.483 184.062 158.486 183.403 158.48 182.764C158.458 180.425 158.26 178.091 157.887 175.782C157.628 174.179 157.284 172.59 156.892 171.014C156.782 170.571 156.13 168.587 155.329 169.051C155.14 169.16 154.963 170.419 154.853 170.681C154.59 171.272 154.27 171.836 153.898 172.364Z"
                        fill="#81A1C1" />
                    <path class="fill--blue-2"
                        d="M189.974 168.053L191.251 170.7C191.866 171.789 192.146 173.034 192.056 174.28L192.132 182.222C192.142 183.283 192.15 184.36 191.87 185.384C191.79 185.726 191.64 186.047 191.429 186.328C191.213 186.571 190.957 186.775 190.674 186.935C188.257 188.44 185.124 189.296 182.57 188.034C181.986 187.724 181.43 187.362 180.909 186.953C179.891 186.202 178.859 185.436 178.097 184.427C177.301 183.371 176.844 182.107 176.308 180.899C175.346 178.732 174.103 176.699 172.611 174.854C172.394 174.586 172.161 174.293 172.153 173.949C172.137 173.253 172.966 172.91 173.612 172.645C174.715 172.193 174.889 171.875 175.074 170.7C177.944 173.129 180.877 176.454 184.58 177.575C184.638 177.612 184.705 177.633 184.774 177.635C184.843 177.637 184.911 177.62 184.971 177.587C185.031 177.554 185.081 177.505 185.116 177.445C185.15 177.386 185.168 177.318 185.167 177.249C185.378 176.373 185.452 175.47 185.606 174.581C185.888 172.964 186.431 171.402 187.214 169.958C187.652 169.148 189.072 166.184 189.974 168.053Z"
                        fill="#81A1C1" />
                    <path class="fill--ui-1" opacity="0.1"
                        d="M158.102 175.74C158.137 177.65 157.742 179.542 156.949 181.269C156.743 181.651 156.591 182.061 156.498 182.487C156.36 183.396 156.863 184.276 157.438 184.98C158.572 186.366 160.043 187.419 161.701 188.03"
                        fill="#D8DEE9" />
                    <path class="fill--ui-1" opacity="0.1"
                        d="M185.923 174.204C185.744 174.711 185.907 175.272 186.044 175.793C186.444 177.305 186.63 178.87 186.598 180.438C186.604 180.466 186.603 180.494 186.595 180.521C186.588 180.548 186.575 180.573 186.556 180.593C186.537 180.613 186.514 180.628 186.489 180.636C186.463 180.645 186.436 180.646 186.41 180.641C185.825 180.679 185.154 180.683 184.757 180.228"
                        fill="#D8DEE9" />
                    <path
                        d="M165.26 156.704C165.26 156.704 164.824 156.453 165.081 155C165.234 154.176 165.295 153.325 165.26 152.476C165.547 151.218 165.908 149.992 166.338 148.81C166.876 147.496 166.62 146.942 168.313 146.527C171.03 144.067 172.472 145.061 174.155 146.173C175.476 147.046 175.136 146.821 175.136 146.821C175.378 146.944 175.946 147.386 176.198 147.307L176.798 147.793C176.798 147.793 177.008 148.049 177.239 148.741C177.47 149.433 178 147.985 178 152.654C178 157.322 178 158 178 158C178 158 177.399 153.302 174.635 151.681C171.583 150.886 167.133 150.813 166.338 153.788C165.908 155.457 165.964 155.214 165.26 156.704Z"
                        fill="#4C566A" />
                </svg>